<svg xmlns="http://www.w3.org/2000/svg" version="1.1" xmlns:xlink="http://www.w3.org/1999/xlink" xmlns:svgjs="http://svgjs.dev/svgjs" width="1000" height="939" viewBox="0 0 1000 939"><g transform="matrix(1,0,0,1,0.6518573298205865,1.8516552214755393)"><svg viewBox="0 0 263 247" data-background-color="#97978d" preserveAspectRatio="xMidYMid meet" height="939" width="1000" xmlns="http://www.w3.org/2000/svg" xmlns:xlink="http://www.w3.org/1999/xlink"><g id="tight-bounds" transform="matrix(1,0,0,1,-0.17143847774281085,-0.09999999999999432)"><svg viewBox="0 0 263.3428769554856 247.2" height="247.2" width="263.3428769554856"><g><svg viewBox="0 0 397.4975999999999 373.1310596132421" height="247.2" width="263.3428769554856"><g><rect width="397.4975999999999" height="10.673683842188781" x="0" y="191.5129076880985" fill="#ffffff" opacity="1" stroke-width="0" stroke="transparent" fill-opacity="1" class="rect-o-0" data-fill-palette-color="primary" rx="1%" id="o-0" data-palette-color="#ffffff"></rect></g><g><rect width="397.4975999999999" height="10.673683842188781" x="0" y="216.1573818996443" fill="#ffffff" opacity="1" stroke-width="0" stroke="transparent" fill-opacity="1" class="rect-o-1" data-fill-palette-color="primary" rx="1%" id="o-1" data-palette-color="#ffffff"></rect></g><g transform="matrix(1,0,0,1,0.9887999999999693,254.77264648054717)"><svg viewBox="0 0 395.52 118.35841313269492" height="118.35841313269492" width="395.52"><g><svg viewBox="0 0 395.52 118.35841313269492" height="118.35841313269492" width="395.52"><g><svg viewBox="0 0 395.52 118.35841313269492" height="118.35841313269492" width="395.52"><g transform="matrix(1,0,0,1,0,0)"><svg width="395.52" viewBox="0.75 -43.349998474121094 146.19000244140625 43.75" height="118.35841313269492" data-palette-color="#ffffff"><path d="M9.1 0L0.75 0 4.9-42.95 19.45-42.95 23.55 0 15.4 0 14.8-6.95 9.6-6.95 9.1 0ZM11.85-35.65L10.25-13.8 14.15-13.8 12.25-35.65 11.85-35.65ZM26.15 0L26.15-42.95 39.35-42.95Q42.5-42.95 44.22-41.53 45.95-40.1 46.55-37.52 47.15-34.95 47.15-30.95L47.15-30.95Q47.15-27.3 46.2-25.25 45.25-23.2 42.9-22.4L42.9-22.4Q44.85-22 45.72-20.45 46.6-18.9 46.6-16.25L46.6-16.25 46.5 0 38.1 0 38.1-16.8Q38.1-18.6 37.4-19.1 36.7-19.6 34.85-19.6L34.85-19.6 34.85 0 26.15 0ZM34.9-27.05L36.95-27.05Q38.75-27.05 38.75-30.95L38.75-30.95Q38.75-32.65 38.6-33.5 38.45-34.35 38.05-34.68 37.65-35 36.9-35L36.9-35 34.9-35 34.9-27.05ZM73.99 0L65.39 0 65.39-34.7 60.29-34.7 60.29-42.95 79.09-42.95 79.09-34.7 73.99-34.7 73.99 0ZM99.24 0L81.49 0 81.49-42.95 98.69-42.95 98.69-34.65 90.24-34.65 90.24-26.3 98.34-26.3 98.34-18.2 90.24-18.2 90.24-8.35 99.24-8.35 99.24 0ZM112.09 0.4Q107.39 0.4 104.56-2.55 101.74-5.5 101.74-10.65L101.74-10.65 101.74-30.45Q101.74-36.85 104.29-40.1 106.84-43.35 112.29-43.35L112.29-43.35Q117.04-43.35 119.94-40.75 122.84-38.15 122.84-33.25L122.84-33.25 122.84-25.85 114.29-25.85 114.29-32.2Q114.29-34.05 113.84-34.75 113.39-35.45 112.29-35.45L112.29-35.45Q111.14-35.45 110.71-34.65 110.29-33.85 110.29-32.3L110.29-32.3 110.29-10.75Q110.29-9.05 110.79-8.28 111.29-7.5 112.29-7.5L112.29-7.5Q114.29-7.5 114.29-10.75L114.29-10.75 114.29-18.5 122.94-18.5 122.94-10.4Q122.94 0.4 112.09 0.4L112.09 0.4ZM134.34 0L125.79 0 125.79-42.95 134.34-42.95 134.34-27.6 138.38-27.6 138.38-42.95 146.94-42.95 146.94 0 138.38 0 138.38-19.5 134.34-19.5 134.34 0Z" opacity="1" transform="matrix(1,0,0,1,0,0)" fill="#ffffff" class="undefined-text-0" data-fill-palette-color="primary" id="text-0"></path></svg></g></svg></g></svg></g></svg></g><g transform="matrix(1,0,0,1,114.15031597319245,0)"><svg viewBox="0 0 169.19696805361502 163.5713269493844" height="163.5713269493844" width="169.19696805361502"><g><svg xmlns="http://www.w3.org/2000/svg" data-name="Layer 1 copy 2" viewBox="2.0052309036254883 4 59.99477005004883 58" x="0" y="0" height="163.5713269493844" width="169.19696805361502" class="icon-icon-0" data-fill-palette-color="accent" id="icon-0"><path d="M18.912 34a4 4 0 1 0-4-4A4 4 0 0 0 18.912 34Zm0-6a2 2 0 1 1-2 2A2 2 0 0 1 18.912 28Z" fill="#ffffff" data-fill-palette-color="accent"></path><path d="M22.912 4h-8a1 1 0 0 0-1 1V7.965A20.658 20.658 0 0 0 2.249 29.842 87.679 87.679 0 0 0 6.458 46.255l1.454 3.924V61a1 1 0 0 0 1 1h20a1 1 0 0 0 1-1V51h8a1 1 0 0 0 1-1V38h6a1 1 0 0 0 0.976-1.219L45.262 34H47a1 1 0 0 0 1-1V30h7V28H48V22a1 1 0 0 0-1-1H42.3A20.323 20.323 0 0 0 23.912 6.064V5A1 1 0 0 0 22.912 4Zm-7 4.593V6h6V22.589a7.935 7.935 0 0 0-6 0Zm3 15.407a6 6 0 1 1-6 6A6.006 6.006 0 0 1 18.912 24Zm19 12a1 1 0 0 0-1 1V49h-8a1 1 0 0 0-1 1V60h-18V50a1.009 1.009 0 0 0-0.062-0.348L8.336 45.566a85.652 85.652 0 0 1-4.11-16.031c-0.08-0.511-0.136-1.021-0.172-1.529-0.013-0.172-0.011-0.342-0.019-0.513-0.015-0.336-0.031-0.672-0.028-1.006 0-0.2 0.018-0.4 0.026-0.607 0.013-0.3 0.024-0.6 0.05-0.9 0.02-0.214 0.052-0.425 0.078-0.638 0.035-0.281 0.07-0.562 0.117-0.84 0.038-0.218 0.086-0.432 0.131-0.648 0.056-0.269 0.112-0.538 0.18-0.8 0.055-0.216 0.119-0.429 0.182-0.642 0.076-0.259 0.154-0.518 0.241-0.773 0.073-0.212 0.152-0.422 0.232-0.631 0.1-0.249 0.194-0.5 0.3-0.743 0.089-0.206 0.183-0.41 0.279-0.612 0.115-0.241 0.234-0.479 0.359-0.715 0.1-0.2 0.212-0.394 0.324-0.588 0.134-0.232 0.273-0.46 0.417-0.686 0.119-0.188 0.24-0.375 0.366-0.559 0.153-0.222 0.312-0.439 0.474-0.655 0.133-0.177 0.267-0.354 0.406-0.527 0.172-0.212 0.352-0.417 0.533-0.622 0.145-0.164 0.289-0.329 0.44-0.489 0.192-0.2 0.394-0.4 0.6-0.59 0.154-0.149 0.306-0.3 0.466-0.445 0.217-0.194 0.444-0.378 0.67-0.563 0.16-0.13 0.314-0.264 0.478-0.389 0.25-0.191 0.513-0.369 0.774-0.548 0.153-0.105 0.3-0.216 0.458-0.317 0.326-0.209 0.664-0.4 1.005-0.592 0.1-0.058 0.2-0.122 0.306-0.178l0.017-0.009V23.765a8 8 0 1 0 13 6.235 8.073 8.073 0 0 0-0.058-0.925l10.867 0.905L38 33.09A1 1 0 0 0 39 34h4.213l0.449 2ZM46 23v9H39.913L39.1 23Zm-5.773-2H23.994L23.918 8.051A18.342 18.342 0 0 1 40.227 21Zm-3.14 2l0.45 4.958-11.2-0.934a8.027 8.027 0 0 0-2.42-3.259V23Z" fill="#ffffff" data-fill-palette-color="accent"></path><rect x="50" y="21" width="7" height="2" fill="#ffffff" data-fill-palette-color="accent"></rect><rect x="56" y="32" width="5" height="2" fill="#ffffff" data-fill-palette-color="accent"></rect><rect x="57" y="25" width="5" height="2" fill="#ffffff" data-fill-palette-color="accent"></rect><rect x="52" y="32" width="2" height="2" fill="#ffffff" data-fill-palette-color="accent"></rect><rect x="50" y="24" width="2" height="2" fill="#ffffff" data-fill-palette-color="accent"></rect></svg></g></svg></g><g></g></svg></g><defs></defs></svg><rect width="263.3428769554856" height="247.2" fill="none" stroke="none" visibility="hidden"></rect></g></svg></g></svg>